<svg width="18" height="21" viewBox="0 0 18 21" fill="none" xmlns="http://www.w3.org/2000/svg">
<path d="M1.5 18.625C1.5 19.1223 1.69754 19.5992 2.04917 19.9508C2.40081 20.3025 2.87772 20.5 3.375 20.5H14.625C15.1223 20.5 15.5992 20.3025 15.9508 19.9508C16.3025 19.5992 16.5 19.1223 16.5 18.625V5.50001H1.5V18.625ZM12.125 8.62501C12.125 8.45925 12.1908 8.30028 12.3081 8.18306C12.4253 8.06585 12.5842 8.00001 12.75 8.00001C12.9158 8.00001 13.0747 8.06585 13.1919 8.18306C13.3092 8.30028 13.375 8.45925 13.375 8.62501V17.375C13.375 17.5408 13.3092 17.6997 13.1919 17.8169C13.0747 17.9342 12.9158 18 12.75 18C12.5842 18 12.4253 17.9342 12.3081 17.8169C12.1908 17.6997 12.125 17.5408 12.125 17.375V8.62501ZM8.375 8.62501C8.375 8.45925 8.44085 8.30028 8.55806 8.18306C8.67527 8.06585 8.83424 8.00001 9 8.00001C9.16576 8.00001 9.32473 8.06585 9.44194 8.18306C9.55915 8.30028 9.625 8.45925 9.625 8.62501V17.375C9.625 17.5408 9.55915 17.6997 9.44194 17.8169C9.32473 17.9342 9.16576 18 9 18C8.83424 18 8.67527 17.9342 8.55806 17.8169C8.44085 17.6997 8.375 17.5408 8.375 17.375V8.62501ZM4.625 8.62501C4.625 8.45925 4.69085 8.30028 4.80806 8.18306C4.92527 8.06585 5.08424 8.00001 5.25 8.00001C5.41576 8.00001 5.57473 8.06585 5.69194 8.18306C5.80915 8.30028 5.875 8.45925 5.875 8.62501V17.375C5.875 17.5408 5.80915 17.6997 5.69194 17.8169C5.57473 17.9342 5.41576 18 5.25 18C5.08424 18 4.92527 17.9342 4.80806 17.8169C4.69085 17.6997 4.625 17.5408 4.625 17.375V8.62501ZM17.125 1.75001H12.4375L12.0703 1.01954C11.9925 0.863372 11.8727 0.732008 11.7243 0.640225C11.576 0.548442 11.4049 0.499882 11.2305 0.500007H6.76562C6.59155 0.499338 6.42082 0.547717 6.27297 0.639602C6.12513 0.731487 6.00615 0.863161 5.92969 1.01954L5.5625 1.75001H0.875C0.70924 1.75001 0.550269 1.81585 0.433058 1.93307C0.315848 2.05028 0.25 2.20925 0.25 2.37501L0.25 3.62501C0.25 3.79077 0.315848 3.94974 0.433058 4.06695C0.550269 4.18416 0.70924 4.25001 0.875 4.25001H17.125C17.2908 4.25001 17.4497 4.18416 17.5669 4.06695C17.6842 3.94974 17.75 3.79077 17.75 3.62501V2.37501C17.75 2.20925 17.6842 2.05028 17.5669 1.93307C17.4497 1.81585 17.2908 1.75001 17.125 1.75001Z" fill="#005591"/>
</svg>
