<svg width="20" height="26" viewBox="0 0 20 26" fill="none" xmlns="http://www.w3.org/2000/svg">
<path fill-rule="evenodd" clip-rule="evenodd" d="M18.4 0.400002H1.59995C1.22865 0.400002 0.872553 0.547501 0.610002 0.810052C0.347451 1.0726 0.199951 1.4287 0.199951 1.8V24.2C0.199951 24.5713 0.347451 24.9274 0.610002 25.19C0.872553 25.4525 1.22865 25.6 1.59995 25.6H18.4C18.7713 25.6 19.1273 25.4525 19.3899 25.19C19.6525 24.9274 19.8 24.5713 19.8 24.2V1.8C19.8 1.4287 19.6525 1.0726 19.3899 0.810052C19.1273 0.547501 18.7713 0.400002 18.4 0.400002ZM14.2 20H5.79995V17.2H14.2V20ZM14.2 14.4H5.79995V11.6H14.2V14.4ZM14.2 8.8H5.79995V6H14.2V8.8Z" fill="#005591"/>
</svg>
