<svg width="29" height="21" viewBox="0 0 29 21" fill="none" xmlns="http://www.w3.org/2000/svg">
<path d="M22 19.5V17.5C22 16.4391 21.5786 15.4217 20.8284 14.6716C20.0783 13.9214 19.0609 13.5 18 13.5H10C8.93913 13.5 7.92172 13.9214 7.17157 14.6716C6.42143 15.4217 6 16.4391 6 17.5V19.5" stroke="#6C757E" stroke-width="2" stroke-linecap="round" stroke-linejoin="round"/>
<path d="M14 9.5C16.2091 9.5 18 7.70914 18 5.5C18 3.29086 16.2091 1.5 14 1.5C11.7909 1.5 10 3.29086 10 5.5C10 7.70914 11.7909 9.5 14 9.5Z" stroke="#6C757E" stroke-width="2" stroke-linecap="round" stroke-linejoin="round"/>
<path d="M28 19.5V17.5C27.9993 16.6137 27.7044 15.7528 27.1614 15.0523C26.6184 14.3519 25.8581 13.8516 25 13.63" stroke="#6C757E" stroke-width="2" stroke-linecap="round" stroke-linejoin="round"/>
<path d="M21 1.63C21.8604 1.8503 22.623 2.3507 23.1676 3.05231C23.7122 3.75392 24.0078 4.61683 24.0078 5.505C24.0078 6.39317 23.7122 7.25608 23.1676 7.95769C22.623 8.6593 21.8604 9.1597 21 9.38" stroke="#6C757E" stroke-width="2" stroke-linecap="round" stroke-linejoin="round"/>
<path d="M1 20V17.9557C1.00066 17.0498 1.29564 16.1698 1.83863 15.4538C2.38162 14.7378 3.14187 14.2265 4 14" stroke="#6C757E" stroke-width="2" stroke-linecap="round" stroke-linejoin="round"/>
<path d="M7 2C6.14183 2.19898 5.38119 2.65096 4.83801 3.28467C4.29483 3.91838 4 4.69778 4 5.5C4 6.30222 4.29483 7.08162 4.83801 7.71533C5.38119 8.34904 6.14183 8.80102 7 9" stroke="#6C757E" stroke-width="2" stroke-linecap="round" stroke-linejoin="round"/>
</svg>
