<svg width="25" height="33" viewBox="0 0 25 33" fill="none" xmlns="http://www.w3.org/2000/svg">
    <path
        d="M23.6875 7.0625L17.5688 0.9375C17.2875 0.65625 16.9062 0.5 16.5063 0.5H16.125V8.5H24.125V8.11875C24.125 7.725 23.9688 7.34375 23.6875 7.0625ZM14.125 9V0.5H1.625C0.79375 0.5 0.125 1.16875 0.125 2V31C0.125 31.8312 0.79375 32.5 1.625 32.5H22.625C23.4562 32.5 24.125 31.8312 24.125 31V10.5H15.625C14.8 10.5 14.125 9.825 14.125 9ZM18.125 19V22C18.125 22.275 17.9 22.5 17.625 22.5H14.125V26C14.125 26.275 13.9 26.5 13.625 26.5H10.625C10.35 26.5 10.125 26.275 10.125 26V22.5H6.625C6.35 22.5 6.125 22.275 6.125 22V19C6.125 18.725 6.35 18.5 6.625 18.5H10.125V15C10.125 14.725 10.35 14.5 10.625 14.5H13.625C13.9 14.5 14.125 14.725 14.125 15V18.5H17.625C17.9 18.5 18.125 18.725 18.125 19Z"
        fill="#005591" />
</svg>
