<svg width="21" height="19" viewBox="0 0 21 19" fill="none" xmlns="http://www.w3.org/2000/svg">
<path d="M2.20002 0.0999999C1.72263 0.0999999 1.2648 0.289642 0.927232 0.627208C0.589667 0.964773 0.400024 1.42261 0.400024 1.9V6.7C0.400024 7.17739 0.589667 7.63523 0.927232 7.97279C1.2648 8.31036 1.72263 8.5 2.20002 8.5H13C13.4774 8.5 13.9353 8.31036 14.2728 7.97279C14.6104 7.63523 14.8 7.17739 14.8 6.7V1.9C14.8 1.42261 14.6104 0.964773 14.2728 0.627208C13.9353 0.289642 13.4774 0.0999999 13 0.0999999H2.20002ZM1.60002 1.9C1.60002 1.74087 1.66324 1.58826 1.77576 1.47574C1.88828 1.36321 2.04089 1.3 2.20002 1.3H13C13.1592 1.3 13.3118 1.36321 13.4243 1.47574C13.5368 1.58826 13.6 1.74087 13.6 1.9V6.7C13.6 6.85913 13.5368 7.01174 13.4243 7.12426C13.3118 7.23679 13.1592 7.3 13 7.3H2.20002C2.04089 7.3 1.88828 7.23679 1.77576 7.12426C1.66324 7.01174 1.60002 6.85913 1.60002 6.7V1.9ZM2.20002 9.7C1.72263 9.7 1.2648 9.88964 0.927232 10.2272C0.589667 10.5648 0.400024 11.0226 0.400024 11.5V16.3C0.400024 16.7774 0.589667 17.2352 0.927232 17.5728C1.2648 17.9104 1.72263 18.1 2.20002 18.1H13C13.4774 18.1 13.9353 17.9104 14.2728 17.5728C14.6104 17.2352 14.8 16.7774 14.8 16.3V11.5C14.8 11.0226 14.6104 10.5648 14.2728 10.2272C13.9353 9.88964 13.4774 9.7 13 9.7H2.20002ZM1.60002 11.5C1.60002 11.3409 1.66324 11.1883 1.77576 11.0757C1.88828 10.9632 2.04089 10.9 2.20002 10.9H13C13.1592 10.9 13.3118 10.9632 13.4243 11.0757C13.5368 11.1883 13.6 11.3409 13.6 11.5V16.3C13.6 16.4591 13.5368 16.6117 13.4243 16.7243C13.3118 16.8368 13.1592 16.9 13 16.9H2.20002C2.04089 16.9 1.88828 16.8368 1.77576 16.7243C1.66324 16.6117 1.60002 16.4591 1.60002 16.3V11.5ZM18.4 11.4244C18.0454 11.5152 17.6747 11.5239 17.3162 11.4496C16.9577 11.3754 16.6209 11.2202 16.3315 10.996C16.0421 10.7718 15.8077 10.4844 15.6463 10.1558C15.4849 9.82722 15.4006 9.4661 15.4 9.1C15.3999 8.56783 15.5766 8.0507 15.9025 7.62994C16.2283 7.20918 16.6847 6.90864 17.2 6.7756C17.5936 6.67425 18.0064 6.67425 18.4 6.7756C18.9157 6.9082 19.3727 7.20854 19.699 7.62934C20.0253 8.05014 20.2024 8.56751 20.2024 9.1C20.2024 9.63249 20.0253 10.1499 19.699 10.5707C19.3727 10.9915 18.9157 11.2918 18.4 11.4244ZM17.8 0.0999999C17.9592 0.0999999 18.1118 0.163214 18.2243 0.275736C18.3368 0.388258 18.4 0.54087 18.4 0.7V5.5492C18.0028 5.48251 17.5972 5.48251 17.2 5.5492V0.7C17.2 0.54087 17.2632 0.388258 17.3758 0.275736C17.4883 0.163214 17.6409 0.0999999 17.8 0.0999999ZM17.8 12.7C17.596 12.7 17.3956 12.6832 17.2 12.6508V17.5C17.2 17.6591 17.2632 17.8117 17.3758 17.9243C17.4883 18.0368 17.6409 18.1 17.8 18.1C17.9592 18.1 18.1118 18.0368 18.2243 17.9243C18.3368 17.8117 18.4 17.6591 18.4 17.5V12.6508C18.2044 12.6832 18.004 12.7 17.8 12.7Z" fill="#6C757E"/>
</svg>
