<svg width="23" height="25" viewBox="0 0 23 25" fill="none" xmlns="http://www.w3.org/2000/svg">
<path d="M22.4375 18.75C21.0693 18.75 20.9111 17.1875 18.7998 17.1875C16.6792 17.1875 16.5134 18.75 15.1499 18.75C13.7976 18.75 13.6141 17.1875 11.5 17.1875C9.40811 17.1875 9.19443 18.75 7.8623 18.75C6.48789 18.75 6.33877 17.1875 4.2124 17.1875C2.08608 17.1875 1.93442 18.75 0.5625 18.75V14.8438C0.5625 13.5498 1.6123 12.5 2.90625 12.5H3.6875V5.46875H6.8125V12.5H9.9375V5.46875H13.0625V12.5H16.1875V5.46875H19.3125V12.5H20.0938C21.3877 12.5 22.4375 13.5498 22.4375 14.8438V18.75ZM22.4375 25H0.5625V20.3125C2.67949 20.3125 2.84605 18.75 4.2124 18.75C5.5772 18.75 5.73843 20.3125 7.8623 20.3125C9.95425 20.3125 10.1678 18.75 11.5 18.75C12.8744 18.75 13.0235 20.3125 15.1499 20.3125C17.2669 20.3125 17.4334 18.75 18.7998 18.75C20.142 18.75 20.3258 20.3125 22.4375 20.3125V25ZM5.25 4.6875C4.3833 4.6875 3.6875 3.9917 3.6875 3.125C3.6875 1.61133 5.25 2.00195 5.25 0C5.83594 0 6.8125 1.44043 6.8125 2.73438C6.8125 4.02832 6.1167 4.6875 5.25 4.6875ZM11.5 4.6875C10.6333 4.6875 9.9375 3.9917 9.9375 3.125C9.9375 1.61133 11.5 2.00195 11.5 0C12.0859 0 13.0625 1.44043 13.0625 2.73438C13.0625 4.02832 12.3667 4.6875 11.5 4.6875ZM17.75 4.6875C16.8833 4.6875 16.1875 3.9917 16.1875 3.125C16.1875 1.61133 17.75 2.00195 17.75 0C18.3359 0 19.3125 1.44043 19.3125 2.73438C19.3125 4.02832 18.6167 4.6875 17.75 4.6875Z" fill="#6C757E"/>
</svg>
