<svg width="16" height="12" viewBox="0 0 16 12" fill="none" xmlns="http://www.w3.org/2000/svg">
<path d="M8.33333 5.96666C8.65556 5.61111 8.90289 5.20555 9.07533 4.75C9.24733 4.29444 9.33333 3.82222 9.33333 3.33333C9.33333 2.84444 9.24733 2.37222 9.07533 1.91666C8.90289 1.46111 8.65556 1.05555 8.33333 0.699998C9 0.788886 9.55556 1.08333 10 1.58333C10.4444 2.08333 10.6667 2.66666 10.6667 3.33333C10.6667 4 10.4444 4.58333 10 5.08333C9.55556 5.58333 9 5.87778 8.33333 5.96666ZM11.6833 11.3333C11.7833 11.2556 11.8611 11.1582 11.9167 11.0413C11.9722 10.9249 12 10.7944 12 10.65V9.33333C12 8.93333 11.9111 8.55289 11.7333 8.192C11.5556 7.83066 11.3222 7.51111 11.0333 7.23333C11.6 7.43333 12.1251 7.69155 12.6087 8.008C13.0918 8.32489 13.3333 8.76666 13.3333 9.33333V10.6667C13.3333 10.8556 13.2693 11.0138 13.1413 11.1413C13.0138 11.2693 12.8556 11.3333 12.6667 11.3333H11.6833ZM14 6.66666C13.8111 6.66666 13.6529 6.60266 13.5253 6.47466C13.3973 6.34711 13.3333 6.18889 13.3333 6V5.33333H12.6667C12.4778 5.33333 12.3196 5.26933 12.192 5.14133C12.064 5.01378 12 4.85555 12 4.66666C12 4.47778 12.064 4.31933 12.192 4.19133C12.3196 4.06378 12.4778 4 12.6667 4H13.3333V3.33333C13.3333 3.14444 13.3973 2.986 13.5253 2.858C13.6529 2.73044 13.8111 2.66666 14 2.66666C14.1889 2.66666 14.3471 2.73044 14.4747 2.858C14.6027 2.986 14.6667 3.14444 14.6667 3.33333V4H15.3333C15.5222 4 15.6804 4.06378 15.808 4.19133C15.936 4.31933 16 4.47778 16 4.66666C16 4.85555 15.936 5.01378 15.808 5.14133C15.6804 5.26933 15.5222 5.33333 15.3333 5.33333H14.6667V6C14.6667 6.18889 14.6027 6.34711 14.4747 6.47466C14.3471 6.60266 14.1889 6.66666 14 6.66666ZM5.33333 6C4.6 6 3.97222 5.73889 3.45 5.21666C2.92778 4.69444 2.66667 4.06666 2.66667 3.33333C2.66667 2.6 2.92778 1.97222 3.45 1.45C3.97222 0.927775 4.6 0.666664 5.33333 0.666664C6.06667 0.666664 6.69444 0.927775 7.21667 1.45C7.73889 1.97222 8 2.6 8 3.33333C8 4.06666 7.73889 4.69444 7.21667 5.21666C6.69444 5.73889 6.06667 6 5.33333 6ZM0.666667 11.3333C0.477778 11.3333 0.319556 11.2693 0.192 11.1413C0.064 11.0138 0 10.8556 0 10.6667V9.46667C0 9.08889 0.0973333 8.74155 0.292 8.42466C0.486222 8.10822 0.744444 7.86666 1.06667 7.7C1.75556 7.35555 2.45556 7.09711 3.16667 6.92466C3.87778 6.75266 4.6 6.66666 5.33333 6.66666C6.06667 6.66666 6.78889 6.75266 7.5 6.92466C8.21111 7.09711 8.91111 7.35555 9.6 7.7C9.92222 7.86666 10.1804 8.10822 10.3747 8.42466C10.5693 8.74155 10.6667 9.08889 10.6667 9.46667V10.6667C10.6667 10.8556 10.6029 11.0138 10.4753 11.1413C10.3473 11.2693 10.1889 11.3333 10 11.3333H0.666667Z" fill="white"/>
</svg>
