<svg width="18" height="21" viewBox="0 0 18 21" fill="none" xmlns="http://www.w3.org/2000/svg">
<path d="M1.5 18.625C1.5 19.1223 1.69754 19.5992 2.04917 19.9508C2.40081 20.3025 2.87772 20.5 3.375 20.5H14.625C15.1223 20.5 15.5992 20.3025 15.9508 19.9508C16.3025 19.5992 16.5 19.1223 16.5 18.625V5.5H1.5V18.625ZM12.125 8.625C12.125 8.45924 12.1908 8.30027 12.3081 8.18306C12.4253 8.06585 12.5842 8 12.75 8C12.9158 8 13.0747 8.06585 13.1919 8.18306C13.3092 8.30027 13.375 8.45924 13.375 8.625V17.375C13.375 17.5408 13.3092 17.6997 13.1919 17.8169C13.0747 17.9342 12.9158 18 12.75 18C12.5842 18 12.4253 17.9342 12.3081 17.8169C12.1908 17.6997 12.125 17.5408 12.125 17.375V8.625ZM8.375 8.625C8.375 8.45924 8.44085 8.30027 8.55806 8.18306C8.67527 8.06585 8.83424 8 9 8C9.16576 8 9.32473 8.06585 9.44194 8.18306C9.55915 8.30027 9.625 8.45924 9.625 8.625V17.375C9.625 17.5408 9.55915 17.6997 9.44194 17.8169C9.32473 17.9342 9.16576 18 9 18C8.83424 18 8.67527 17.9342 8.55806 17.8169C8.44085 17.6997 8.375 17.5408 8.375 17.375V8.625ZM4.625 8.625C4.625 8.45924 4.69085 8.30027 4.80806 8.18306C4.92527 8.06585 5.08424 8 5.25 8C5.41576 8 5.57473 8.06585 5.69194 8.18306C5.80915 8.30027 5.875 8.45924 5.875 8.625V17.375C5.875 17.5408 5.80915 17.6997 5.69194 17.8169C5.57473 17.9342 5.41576 18 5.25 18C5.08424 18 4.92527 17.9342 4.80806 17.8169C4.69085 17.6997 4.625 17.5408 4.625 17.375V8.625ZM17.125 1.75H12.4375L12.0703 1.01953C11.9925 0.863364 11.8727 0.732 11.7243 0.640217C11.576 0.548434 11.4049 0.499874 11.2305 0.499999H6.76563C6.59155 0.49933 6.42082 0.547709 6.27297 0.639594C6.12513 0.731479 6.00615 0.863153 5.92969 1.01953L5.5625 1.75H0.875C0.70924 1.75 0.550269 1.81585 0.433058 1.93306C0.315848 2.05027 0.25 2.20924 0.25 2.375L0.25 3.625C0.25 3.79076 0.315848 3.94973 0.433058 4.06694C0.550269 4.18415 0.70924 4.25 0.875 4.25H17.125C17.2908 4.25 17.4497 4.18415 17.5669 4.06694C17.6842 3.94973 17.75 3.79076 17.75 3.625V2.375C17.75 2.20924 17.6842 2.05027 17.5669 1.93306C17.4497 1.81585 17.2908 1.75 17.125 1.75V1.75Z" fill="#005591"/>
</svg>
