<svg width="24" height="20" viewBox="0 0 24 20" fill="none" xmlns="http://www.w3.org/2000/svg">
<path d="M22 0.666664H2C0.895833 0.666664 0 1.5625 0 2.66666V3.33333H24V2.66666C24 1.5625 23.1042 0.666664 22 0.666664ZM0 17.3333C0 18.4375 0.895833 19.3333 2 19.3333H22C23.1042 19.3333 24 18.4375 24 17.3333V4.66666H0V17.3333ZM14.6667 7.66666C14.6667 7.48333 14.8167 7.33333 15 7.33333H21C21.1833 7.33333 21.3333 7.48333 21.3333 7.66666V8.33333C21.3333 8.51666 21.1833 8.66666 21 8.66666H15C14.8167 8.66666 14.6667 8.51666 14.6667 8.33333V7.66666ZM14.6667 10.3333C14.6667 10.15 14.8167 10 15 10H21C21.1833 10 21.3333 10.15 21.3333 10.3333V11C21.3333 11.1833 21.1833 11.3333 21 11.3333H15C14.8167 11.3333 14.6667 11.1833 14.6667 11V10.3333ZM14.6667 13C14.6667 12.8167 14.8167 12.6667 15 12.6667H21C21.1833 12.6667 21.3333 12.8167 21.3333 13V13.6667C21.3333 13.85 21.1833 14 21 14H15C14.8167 14 14.6667 13.85 14.6667 13.6667V13ZM7.33333 7.33333C8.80417 7.33333 10 8.52916 10 10C10 11.4708 8.80417 12.6667 7.33333 12.6667C5.8625 12.6667 4.66667 11.4708 4.66667 10C4.66667 8.52916 5.8625 7.33333 7.33333 7.33333ZM2.79583 15.8417C3.14583 14.7708 4.15 14 5.33333 14H5.675C6.1875 14.2125 6.74583 14.3333 7.33333 14.3333C7.92083 14.3333 8.48333 14.2125 8.99167 14H9.33333C10.5167 14 11.5208 14.7708 11.8708 15.8417C12.0042 16.2542 11.6542 16.6667 11.2208 16.6667H3.44583C3.0125 16.6667 2.6625 16.25 2.79583 15.8417Z" fill="#6C757E"/>
</svg>
