<svg width="20" height="20" viewBox="0 0 20 20" fill="none" xmlns="http://www.w3.org/2000/svg">
<path d="M10.025 13.75C8.975 13.75 8.08333 13.3833 7.35 12.65C6.61667 11.9167 6.25 11.0333 6.25 10C6.25 8.95 6.61667 8.0625 7.35 7.3375C8.08333 6.6125 8.96667 6.25 10 6.25C11.05 6.25 11.9375 6.6125 12.6625 7.3375C13.3875 8.0625 13.75 8.94167 13.75 9.975C13.75 11.025 13.3875 11.9167 12.6625 12.65C11.9375 13.3833 11.0583 13.75 10.025 13.75ZM10 12.25C10.6333 12.25 11.1667 12.0292 11.6 11.5875C12.0333 11.1458 12.25 10.6167 12.25 10C12.25 9.36667 12.0333 8.83333 11.6 8.4C11.1667 7.96667 10.6417 7.75 10.025 7.75C9.39167 7.75 8.85417 7.96667 8.4125 8.4C7.97083 8.83333 7.75 9.35833 7.75 9.975C7.75 10.6083 7.97083 11.1458 8.4125 11.5875C8.85417 12.0292 9.38333 12.25 10 12.25ZM15.025 20C15.325 19.0667 15.5667 18.1542 15.75 17.2625C15.9333 16.3708 16.0667 15.7083 16.15 15.275C15.3 16.2417 14.3333 16.9458 13.25 17.3875C12.1667 17.8292 11.0833 18.05 10 18.05C7.73333 18.05 5.74583 17.8875 4.0375 17.5625C2.32917 17.2375 0.983333 16.9333 0 16.65V15.05C0.933333 15.35 1.85417 15.5917 2.7625 15.775C3.67083 15.9583 4.34167 16.0917 4.775 16.175C3.85833 15.425 3.15833 14.4792 2.675 13.3375C2.19167 12.1958 1.95 11.0833 1.95 10C1.95 7.71667 2.1125 5.725 2.4375 4.025C2.7625 2.325 3.06667 0.983333 3.35 0H4.95C4.65 0.933333 4.4125 1.84583 4.2375 2.7375C4.0625 3.62917 3.94167 4.29167 3.875 4.725C4.675 3.80833 5.625 3.11667 6.725 2.65C7.825 2.18333 8.91667 1.95 10 1.95C12.2833 1.95 14.275 2.1125 15.975 2.4375C17.675 2.7625 19.0167 3.06667 20 3.35V4.95C19.0667 4.65 18.1542 4.40833 17.2625 4.225C16.3708 4.04167 15.7083 3.91667 15.275 3.85C16.225 4.66667 16.925 5.625 17.375 6.725C17.825 7.825 18.05 8.91667 18.05 10C18.05 12.2833 17.8875 14.275 17.5625 15.975C17.2375 17.675 16.9333 19.0167 16.65 20H15.025ZM10 16.55C11.8167 16.55 13.3625 15.9125 14.6375 14.6375C15.9125 13.3625 16.55 11.8167 16.55 10C16.55 8.18333 15.9125 6.6375 14.6375 5.3625C13.3625 4.0875 11.8167 3.45 10 3.45C8.18333 3.45 6.6375 4.0875 5.3625 5.3625C4.0875 6.6375 3.45 8.18333 3.45 10C3.45 11.8167 4.0875 13.3625 5.3625 14.6375C6.6375 15.9125 8.18333 16.55 10 16.55Z" fill="#6C757E"/>
</svg>
