<svg width="20" height="18" viewBox="0 0 20 18" fill="none" xmlns="http://www.w3.org/2000/svg">
<path d="M13.9792 3L17.1111 6.13195C17.2431 6.26389 17.2431 6.47917 17.1111 6.61111L9.52778 14.1944L6.30556 14.5521C5.875 14.6007 5.51042 14.2361 5.55903 13.8056L5.91667 10.5833L13.5 3C13.6319 2.86806 13.8472 2.86806 13.9792 3ZM19.6042 2.20486L17.9097 0.510419C17.3819 -0.0173586 16.5243 -0.0173586 15.9931 0.510419L14.7639 1.73959C14.6319 1.87153 14.6319 2.08681 14.7639 2.21875L17.8958 5.3507C18.0278 5.48264 18.2431 5.48264 18.375 5.3507L19.6042 4.12153C20.1319 3.59028 20.1319 2.73264 19.6042 2.20486ZM13.3333 12.1319V15.6667H2.22222V4.55556H10.2014C10.3125 4.55556 10.4167 4.51042 10.4965 4.43403L11.8854 3.04514C12.1493 2.78125 11.9618 2.33334 11.5903 2.33334H1.66667C0.746528 2.33334 0 3.07986 0 4V16.2222C0 17.1424 0.746528 17.8889 1.66667 17.8889H13.8889C14.809 17.8889 15.5556 17.1424 15.5556 16.2222V10.7431C15.5556 10.3715 15.1076 10.1875 14.8438 10.4479L13.4549 11.8368C13.3785 11.9167 13.3333 12.0208 13.3333 12.1319Z" fill="#005591"/>
</svg>
