<svg width="17" height="25" viewBox="0 0 17 25" fill="none" xmlns="http://www.w3.org/2000/svg">
<path d="M13.9688 0H3.03125C1.7373 0 0.6875 1.0498 0.6875 2.34375V22.6562C0.6875 23.9502 1.7373 25 3.03125 25H13.9688C15.2627 25 16.3125 23.9502 16.3125 22.6562V2.34375C16.3125 1.0498 15.2627 0 13.9688 0ZM8.5 23.4375C7.63574 23.4375 6.9375 22.7393 6.9375 21.875C6.9375 21.0107 7.63574 20.3125 8.5 20.3125C9.36426 20.3125 10.0625 21.0107 10.0625 21.875C10.0625 22.7393 9.36426 23.4375 8.5 23.4375ZM13.9688 18.1641C13.9688 18.4863 13.7051 18.75 13.3828 18.75H3.61719C3.29492 18.75 3.03125 18.4863 3.03125 18.1641V2.92969C3.03125 2.60742 3.29492 2.34375 3.61719 2.34375H13.3828C13.7051 2.34375 13.9688 2.60742 13.9688 2.92969V18.1641Z" fill="#6C757E"/>
</svg>
