<svg width="40" height="40" viewBox="0 0 40 40" fill="none" xmlns="http://www.w3.org/2000/svg">
<circle cx="20" cy="20" r="20" fill="#2E6196"/>
<path d="M20 21.5C23.7266 21.5 26.75 18.4766 26.75 14.75C26.75 11.0234 23.7266 8 20 8C16.2734 8 13.25 11.0234 13.25 14.75C13.25 18.4766 16.2734 21.5 20 21.5ZM26 23H23.4172C22.3766 23.4781 21.2188 23.75 20 23.75C18.7812 23.75 17.6281 23.4781 16.5828 23H14C10.6859 23 8 25.6859 8 29V29.75C8 30.9922 9.00781 32 10.25 32H29.75C30.9922 32 32 30.9922 32 29.75V29C32 25.6859 29.3141 23 26 23Z" fill="#F8F9FB"/>
</svg>
