<svg width="32" height="26" viewBox="0 0 32 26" fill="none" xmlns="http://www.w3.org/2000/svg">
<path d="M26.6667 21.8889V22.7778C26.6667 24.2506 25.4728 25.4444 24 25.4444H2.66667C1.19389 25.4444 0 24.2506 0 22.7778V8.55556C0 7.08278 1.19389 5.88889 2.66667 5.88889H3.55556V17.4444C3.55556 19.8951 5.54933 21.8889 8 21.8889H26.6667ZM32 17.4444V3.22222C32 1.74945 30.8061 0.555557 29.3333 0.555557H8C6.52722 0.555557 5.33333 1.74945 5.33333 3.22222V17.4444C5.33333 18.9172 6.52722 20.1111 8 20.1111H29.3333C30.8061 20.1111 32 18.9172 32 17.4444ZM14.2222 5.88889C14.2222 7.36167 13.0283 8.55556 11.5556 8.55556C10.0828 8.55556 8.88889 7.36167 8.88889 5.88889C8.88889 4.41611 10.0828 3.22222 11.5556 3.22222C13.0283 3.22222 14.2222 4.41611 14.2222 5.88889ZM8.88889 13.8889L11.9731 10.8047C12.2334 10.5444 12.6555 10.5444 12.9159 10.8047L15.1111 13L22.6397 5.47139C22.9001 5.21106 23.3222 5.21106 23.5826 5.47139L28.4444 10.3333V16.5556H8.88889V13.8889Z" fill="#005591"/>
</svg>
